<?xml version="1.0" encoding="UTF-8"?>
<svg width="22px" height="22px" viewBox="0 0 22 22" version="1.1" xmlns="http://www.w3.org/2000/svg" xmlns:xlink="http://www.w3.org/1999/xlink">
    <!-- Generator: Sketch 55.2 (78181) - https://sketchapp.com -->
    <title>充币icon未点亮</title>
    <desc>Created with Sketch.</desc>
    <g id="页面1" stroke="none" stroke-width="1" fill="none" fill-rule="evenodd">
        <g id="M端首页-未登录3复制-2备份" transform="translate(-320.000000, -495.000000)" fill="#E5E9F6">
            <g id="编组-4" transform="translate(24.000000, 452.000000)">
                <g id="充币icon点亮" transform="translate(296.000000, 43.000000)">
                    <path d="M11,21 C5.4771525,21 1,16.5228475 1,11 C1,5.4771525 5.4771525,1 11,1 C16.5228475,1 21,5.4771525 21,11 C21,16.5228475 16.5228475,21 11,21 Z M11,19 C15.418278,19 19,15.418278 19,11 C19,6.581722 15.418278,3 11,3 C6.581722,3 3,6.581722 3,11 C3,15.418278 6.581722,19 11,19 Z" id="形状结合"></path>
                    <rect id="矩形" x="7" y="14" width="8" height="2" rx="1"></rect>
                    <rect id="矩形" x="10" y="6" width="2" height="8" rx="1"></rect>
                    <path d="M10.0426407,11.7426407 L13.0426407,11.7426407 C13.5949254,11.7426407 14.0426407,12.1903559 14.0426407,12.7426407 C14.0426407,13.2949254 13.5949254,13.7426407 13.0426407,13.7426407 L9.04264069,13.7426407 C8.49035594,13.7426407 8.04264069,13.2949254 8.04264069,12.7426407 L8.04264069,8.74264069 C8.04264069,8.19035594 8.49035594,7.74264069 9.04264069,7.74264069 C9.59492544,7.74264069 10.0426407,8.19035594 10.0426407,8.74264069 L10.0426407,11.7426407 Z" id="形状结合" transform="translate(11.042641, 10.742641) rotate(-45.000000) translate(-11.042641, -10.742641) "></path>
                </g>
            </g>
        </g>
    </g>
</svg>