<svg width="24" height="18" xmlns="http://www.w3.org/2000/svg"><path d="M24 2.356c-.372.737-1.015 1.262-1.662 1.757-.4.305-.496.619-.522 1.079-.295 5.258-2.74 9.315-7.881 11.569-4.278 1.875-8.594 1.58-12.734-.596-.084-.043-.195-.068-.201-.248 1.682.11 3.312-.091 4.85-.754.632-.272 1.256-.564 1.884-1.076-.314-.058-.541-.095-.763-.144-1.567-.336-2.69-1.193-3.388-2.552-.168-.325-.161-.495.31-.457a6.1 6.1 0 001.353-.058C3.084 10.065 1.816 8.68 1.709 6.4c.68.189 1.254.475 2.015.46-.983-.784-1.651-1.661-1.88-2.79-.225-1.1-.085-2.14.557-3.176.896.94 1.803 1.775 2.86 2.454 1.944 1.248 4.09 1.96 6.422 2.209.398.043.594.019.539-.462C12.004 3.2 12.776 1.7 14.49.72c1.739-.994 3.578-.976 5.214.163.775.54 1.397.563 2.174.234.505-.214 1.015-.415 1.669-.682-.401 1.022-.992 1.755-1.955 2.369.9.005 1.609-.352 2.366-.49l.04.042z" fill="#00A2FA" fill-rule="evenodd"/></svg>