<?xml version="1.0" encoding="UTF-8"?>
<svg width="60px" height="44px" viewBox="0 0 60 44" version="1.1" xmlns="http://www.w3.org/2000/svg" xmlns:xlink="http://www.w3.org/1999/xlink">
    <!-- Generator: Sketch 55.2 (78181) - https://sketchapp.com -->
    <title>银行卡icon@1x</title>
    <desc>Created with Sketch.</desc>
    <g id="页面1" stroke="none" stroke-width="1" fill="none" fill-rule="evenodd">
        <g id="M端-选择支付方式3" transform="translate(-270.000000, -182.000000)">
            <g id="支付宝备份-3" transform="translate(270.000000, 182.000000)">
                <g id="银行卡icon" transform="translate(2.000000, 7.000000)">
                    <g id="编组">
                        <path d="M10.9659748,0.0580794702 L24.9451413,0.0580794702 C26.8818014,0.0580794702 28.1168559,1.42576159 27.6398769,3.07933775 L21.127586,26.912649 C20.6784895,28.5909934 18.7133986,29.9339073 16.7764252,29.9339073 L2.79757203,29.9339073 C0.860598601,29.9339073 -0.374455944,28.5672185 0.102758042,26.912649 L6.61512727,3.07933775 C7.06422378,1.42450331 9.00088392,0.0580794702 10.9659748,0.0580794702" id="Fill-1" fill="#E03333"></path>
                        <path d="M23.7660084,0.0580794702 L39.8222657,0.0580794702 C41.7592392,0.0580794702 40.8890853,1.42576159 40.4399888,3.07933775 L33.9276979,26.912649 C33.4785231,28.5909934 33.6189538,29.9339073 31.6538629,29.9339073 L15.5976056,29.9339073 C13.632593,29.9339073 12.4255776,28.5672185 12.9028699,26.912649 L19.4152392,3.07933775 C19.8643357,1.42450331 21.8012308,0.0580794702 23.7660084,0.0580794702" id="Fill-3" fill="#004889"></path>
                        <path d="M39.1767385,0.0580794702 L53.1277874,0.0580794702 C55.0928783,0.0580794702 56.2998154,1.42576159 55.8225231,3.07933775 L49.3102322,26.912649 C48.8611357,28.5909934 46.8960448,29.9339073 44.9593846,29.9339073 L31.0083357,29.9339073 C29.0432448,29.9339073 27.8363077,28.5672185 28.3136,26.912649 L34.8258909,3.07933775 C35.2750657,1.42450331 37.2398434,0.0580794702 39.1767385,0.0580794702" id="Fill-4" fill="#008089"></path>
                    </g>
                    <path d="M37.9787466,22.7225882 L39.6453802,22.7225882 L40.1419864,21.6592648 L38.4750559,21.6592648 L37.9787466,22.7225882 Z M39.3260839,19.7678018 L38.7587319,21.0207221 C38.7587319,21.0207221 39.3972256,20.8086583 39.7165219,20.7362288 C40.0709437,20.6895316 40.5675499,20.6425732 40.5675499,20.6425732 L40.9574931,19.7678018 L39.3260839,19.7678018 Z M40.1419864,17.9697332 L39.5746344,19.175891 C39.5746344,19.175891 40.1772109,18.9863594 40.5320286,18.939401 C40.8864504,18.8692573 41.3830566,18.8692573 41.3830566,18.8692573 L41.7730988,17.9944859 L40.1419864,17.9697332 Z M43.8300714,17.9697332 L41.6667326,22.7225882 L42.2341836,22.7225882 L41.7730988,23.6923213 L41.2056478,23.6923213 L41.0638593,24 L39.0072824,24 L39.1490709,23.6923213 L35,23.6923213 L35.4254645,22.7940381 L35.851028,22.7940381 L38.0494924,17.9697332 L38.4750559,17 L40.5675499,17 L40.3546198,17.4972103 C40.3546198,17.4972103 40.9219718,17.237535 41.4538025,17.1428998 C41.9860289,17.047938 45,17.0244915 45,17.0244915 L44.5393109,17.9944859 L43.8300714,17.9697332 Z" id="Fill-5" fill="#FFFFFF"></path>
                    <path d="M44.2565019,17 L46.0352251,17 L46.0635863,17.5421119 C46.0635863,17.6353931 46.1481974,17.683238 46.3460959,17.683238 L46.7129014,17.683238 L46.3740632,18.601925 L45.4141924,18.601925 C44.5953401,18.6497047 44.2565019,18.3430418 44.2848632,18.0130097 L44.2565019,17 Z M44.4823678,21.3125494 L42.7882557,21.3125494 L43.0707653,20.5115544 L44.9907432,20.5115544 L45.2729377,19.7804715 L43.3529597,19.7804715 L43.6917979,18.8617845 L49,18.8617845 L48.6611618,19.7804715 L46.8824387,19.7804715 L46.5999291,20.5115544 L48.3789674,20.5115544 L48.0964578,21.3115079 L46.1764799,21.3115079 L45.8376417,21.6425815 L46.6282903,21.6425815 L46.825795,22.6558516 C46.8541562,22.7501744 46.8541562,22.8213884 46.8824387,22.8679314 C46.9107999,22.9147347 47.1646331,22.9147347 47.3058879,22.9147347 L47.5317538,22.9147347 L47.1646331,23.9521551 L46.5719618,23.9521551 C46.4870356,23.9521551 46.3460959,23.9521551 46.1481974,23.9290464 C45.9788965,23.9043753 45.8376417,23.8344632 45.7247481,23.7866183 C45.5579682,23.7174873 45.4422386,23.5857349 45.4141924,23.4334775 L45.2166878,22.4201423 L44.341113,23.4334775 C44.0589185,23.7401404 43.6917979,24 43.0424828,24 L41.8001024,24 L42.1106581,23.1033803 L42.5907511,23.1033803 C42.7125469,23.101102 42.8307188,23.068294 42.9295105,23.0090575 C43.0142003,22.9856884 43.0988114,22.9391454 43.1837376,22.8201516 L44.4823678,21.3125494 Z M25.9601859,19.0972335 L30.4494569,19.0972335 L30.1106975,19.9928116 L28.3318956,19.9928116 L28.0494648,20.7472637 L29.8847529,20.7472637 L29.5459935,21.6659506 L27.7106266,21.6659506 L27.2588161,22.8913005 C27.2025663,23.0324267 27.6825805,23.0568373 27.8801639,23.0568373 L28.7837061,22.9622541 L28.4165854,23.9755893 L26.3553527,23.9755893 C26.1860518,23.9755893 26.0731582,23.9521551 25.8755749,23.9290464 C25.7059588,23.8812015 25.6213478,23.8344632 25.5367367,23.7167062 C25.4518105,23.6223834 25.3388382,23.5278003 25.4237644,23.3157205 L26.0165145,21.6659506 L25,21.6659506 L25.3388382,20.7225926 L26.3553527,20.7225926 L26.6378623,19.9694425 L25.6213478,19.9694425 L25.9601859,19.0972335 Z M28.9812895,17.494267 L30.8165775,17.494267 L30.4778182,18.4374297 L27.9647749,18.4374297 L27.6825805,18.6263356 C27.5696869,18.719682 27.5130432,18.6728786 27.3717884,18.7430511 C27.2308488,18.8140047 26.9200567,18.9316967 26.5531724,18.9316967 L25.7626025,18.9316967 L26.1014407,18.0363789 L26.3553527,18.0363789 C26.5531724,18.0363789 26.6941121,18.0130097 26.7790383,17.989901 C26.8637281,17.9420561 26.9483392,17.8474729 27.0613115,17.7063468 L27.5130432,17 L29.3484101,17 L28.9812895,17.494267 Z M32.5106896,19.0262798 C32.5106896,19.0262798 33.0188287,18.6484679 33.8660423,18.5320128 C34.0635469,18.5073418 35.2778812,18.5073418 35.2778812,18.5073418 L35.4754646,17.989901 L32.8778891,17.989901 L32.5106896,19.0262798 Z M34.9391218,19.4262891 L32.3694348,19.4262891 L32.2002127,19.8516855 L34.4307464,19.8516855 C34.6848947,19.8272748 34.7412233,19.8516855 34.7695057,19.8516855 L34.9391218,19.4273306 L34.9391218,19.4262891 Z M31.6072262,17 L33.1600835,17 L32.9341389,17.6598038 C32.9341389,17.6598038 33.4425931,17.3297717 33.7813525,17.2120147 C34.1201907,17.0932813 34.9107605,17 34.9107605,17 L37.4517711,17 L36.6048726,19.40292 C36.4636178,19.8039057 36.2943957,20.0871344 36.1814234,20.2048914 C36.0842073,20.3480355 35.9364925,20.4632538 35.757659,20.5349235 C35.5730745,20.6175943 35.3724187,20.6732506 35.1649876,20.6994839 C34.9953716,20.6994839 34.7412233,20.7225926 34.3744178,20.7225926 L31.9177031,20.7225926 L31.2401056,22.6091133 C31.183777,22.7980192 31.1554157,22.8913005 31.183777,22.9391454 C31.2117443,22.9856884 31.2966705,23.0324267 31.4096428,23.0324267 L32.4824072,22.9391454 L32.1152865,23.9755893 L30.9012674,23.9755893 C30.5061006,23.9755893 30.2519523,23.9755893 30.0543689,23.9521551 C29.8564704,23.9521551 29.6872483,23.9521551 29.5459935,23.8578323 C29.4330212,23.7635096 29.263799,23.6689264 29.263799,23.5511694 C29.263799,23.4568466 29.3200488,23.2689171 29.4047387,23.0324267 L31.6072262,17 Z" id="Fill-6" fill="#FFFFFF"></path>
                    <path d="M35.8572714,20.5234555 L35.7115941,21.1662729 C35.6535019,21.3802255 35.5950847,21.5137797 35.4205644,21.647334 C35.2456379,21.7811097 35.0419496,21.9408727 34.5468255,21.9408727 L33.6441623,21.9674507 L33.6441623,22.7157679 C33.6441623,22.9300895 33.7022545,22.9035116 33.7315037,22.9300895 C33.7635154,22.9580702 33.8041393,22.9765271 33.8479318,22.9830978 L34.1392865,22.9830978 L34.9835325,22.9300895 L34.6340856,24 L33.6441623,24 C32.94535,24 32.4502258,24 32.2753805,23.8661505 C32.100779,23.7591742 32.100779,23.6521979 32.100779,23.43795 L32.1588712,20.5511409 L33.7315037,20.5511409 L33.7022545,21.1397688 L34.0809506,21.1397688 C34.1973787,21.1397688 34.2846388,21.1397688 34.343056,21.0855055 C34.4011482,21.0590013 34.4303161,21.0062146 34.4595653,20.9254471 L34.6052427,20.4718499 L35.8572714,20.524932 L35.8572714,20.5234555 Z M13.5226553,7 C13.4645631,7.24082583 12.474396,11.4904936 12.4452281,11.4904936 C12.2414586,12.3473374 12.066857,12.9609929 11.5425649,13.3618771 C11.2515353,13.6024077 10.8729205,13.7093839 10.4650565,13.7093839 C9.79541208,13.7093839 9.41679729,13.4158452 9.35870511,12.8275125 L9.35870511,12.6408762 L9.56247461,11.4904936 C9.56247461,11.4904936 10.6107338,7.61483675 10.8145033,7.10697628 C10.8145033,7.08076746 10.8145033,7.05426333 10.8437525,7.05426333 C8.77632082,7.07929091 8.42695525,7.05426333 8.39770604,7.02768537 C8.39770604,7.05308209 8.33961385,7.29472002 8.33961385,7.29472002 L7.26218668,11.6782373 L7.17484528,12.0526174 L7,13.2546055 C7,13.6024077 7.08726015,13.8971277 7.23293746,14.1644576 C7.72806161,14.9656354 9.12576764,15.072907 9.91192143,15.072907 C10.9310127,15.072907 11.8920118,14.8586591 12.5328132,14.5119644 C13.6683326,13.8971277 13.9593622,12.9344888 14.2215489,12.1056257 L14.337977,11.6771299 C14.337977,11.6771299 15.4154854,7.64141471 15.6192549,7.13355424 C15.6192549,7.10845283 15.6192549,7.08076746 15.6484229,7.08076746 C14.0758716,7.05426333 13.6391646,7.02768537 13.5226553,7 Z M19.5213434,15.0198249 C18.7932818,15.0198249 18.5311764,15.0198249 17.6869304,15.0452216 L17.6577624,14.9921395 C17.7450226,14.6986007 17.8034398,14.4049881 17.8906999,14.1102681 L18.0072093,13.7093839 C18.1528866,13.0683384 18.3274069,12.3461562 18.3274069,12.1056257 C18.3565748,11.9718499 18.385824,11.6243432 17.97796,11.6243432 C17.8034398,11.6243432 17.6285132,11.7048153 17.424825,11.7855828 C17.3083156,12.1319083 17.1045461,13.0683384 17.016961,13.4954314 C16.8131915,14.4049881 16.7840235,14.5119644 16.6967634,14.9656354 L16.6386712,15.0198249 C15.8814416,15.0198249 15.6192549,15.0198249 14.774684,15.0452216 L14.745841,14.9921395 C14.8915183,14.4580702 15.0368707,13.9236318 15.182548,13.3618771 C15.5319948,11.892559 15.6192549,11.3307305 15.7357643,10.5821181 L15.7941002,10.5293313 C16.6386712,10.4220597 16.8424407,10.3957771 17.7450226,10.234316 L17.8322827,10.3150834 L17.6869304,10.7686806 C17.8322827,10.6893897 17.97796,10.6086222 18.1528866,10.5293313 C18.5185017,10.3768033 18.9151535,10.2948546 19.3175739,10.2885055 C19.7251129,10.2885055 20.1618199,10.3957771 20.3366652,10.8228701 C20.5112667,11.1969548 20.3947573,11.6782373 20.1618199,12.586982 L20.0453918,13.0403577 C19.8123731,14.057186 19.7835301,14.2437485 19.6378528,14.9393527 L19.5213434,15.0198249 Z M22.491357,14.0836902 L21.5014337,14.0836902 C21.2393283,14.0836902 20.9482987,14.1102681 20.5404347,14.1102681 L20.5112667,14.0848714 L20.4823425,14.057186 C20.5988518,13.6831751 20.656944,13.5231167 20.7153612,13.3895625 C20.7733721,13.2546055 20.8317893,13.1210513 20.9190494,12.7216437 C21.0355588,12.2126758 21.1228189,11.8648737 21.1812361,11.5447569 C21.2393283,11.2500369 21.2684963,10.9829284 21.3265884,10.6879131 L21.3557564,10.6628855 L21.3850056,10.6352002 C21.8217126,10.5821181 22.1130672,10.5293313 22.3748477,10.5016459 C22.6662023,10.4762492 22.9572319,10.4220597 23.3942639,10.3415876 L23.4231881,10.3680917 L23.4231881,10.3957771 L23.1613264,11.3570132 C23.0737413,11.6782373 22.9864812,11.9998306 22.928389,12.3196521 C22.7535437,12.9875709 22.6954515,13.2546055 22.6662023,13.4158452 C22.6370343,13.5759035 22.6078664,13.6831751 22.5497742,14.0306819 L22.520525,14.0560048 L22.491357,14.0836902 Z M27.1215071,11.7313194 C27.0923391,11.892559 26.9174938,12.5604779 26.6844751,12.8275125 C26.5391228,13.0152563 26.3351096,13.1487367 26.1313401,13.1487367 C26.0732479,13.1487367 25.723801,13.1487367 25.6946331,12.6674542 C25.6946331,12.4269236 25.7527253,12.1860978 25.8110612,11.9190632 C26.0148307,11.144168 26.2186002,10.4751418 26.8009845,10.4751418 C27.2961086,10.4485638 27.3252766,10.9287389 27.1215071,11.7313194 Z M29.0140123,11.7855828 C29.276199,10.7421764 29.0724294,10.2885055 28.8102428,9.99378545 C28.431628,9.54011448 27.7619836,9.40663407 27.0630899,9.40663407 C26.6556322,9.40663407 25.6653839,9.43173547 24.8793113,10.1007617 C24.326095,10.5821181 24.0639083,11.223459 23.918231,11.8397723 C23.7725537,12.4532063 23.5688654,13.6035889 24.7043848,14.0306819 C25.0538316,14.1644576 25.5489558,14.2172444 25.8984026,14.2172444 C26.7428923,14.2172444 27.5874633,14.0029965 28.2278585,13.3895625 C28.7229826,12.8540167 28.9559201,12.1056257 29.0140123,11.7855828 Z M47.970832,9.45971615 C47.0681689,9.61947921 46.8060635,9.64745989 45.9323245,9.75325493 L45.8742324,9.80722295 C45.8742324,9.86023121 45.8449831,9.94070336 45.8449831,9.99378545 C45.7031245,9.76772515 45.4753056,9.59666646 45.2045879,9.5124291 C44.8259731,9.37894869 43.894142,9.56669243 43.1079882,10.2080333 C42.5544469,10.6893897 42.2926665,11.3307305 42.1469892,11.9456411 C42.0013119,12.5604779 41.7975424,13.7093839 42.933143,14.1102681 C43.2825085,14.2437485 43.6319554,14.2980119 43.9522342,14.2714339 C44.3015998,14.2437485 44.6222036,14.0836902 44.9132333,13.8694423 C44.8839841,13.9502098 44.8551411,14.057186 44.8259731,14.1379535 L44.8839841,14.1907403 C45.6993871,14.1644576 45.9614925,14.1644576 46.8352314,14.1644576 L46.9224916,14.1102681 C47.0390009,13.4158452 47.1846782,12.7467451 47.5048759,11.4112027 C47.6505532,10.7686806 47.8251547,10.1550251 48,9.5124291 L47.970832,9.45971615 Z M45.0880786,12.90828 C44.9424012,13.0945472 44.5929544,13.2281014 44.3891849,13.2281014 C44.330849,13.2281014 43.9814022,13.2281014 43.9522342,12.7467451 C43.9522342,12.5073958 44.0105701,12.2668653 44.0686623,11.9983541 C44.2727568,11.2500369 44.4765263,10.5821181 45.0589106,10.5821181 C45.4375254,10.5821181 45.6120457,10.9033422 45.5828777,11.4377807 C45.5546035,11.5827782 45.5156045,11.7258562 45.4663684,11.8659811 C45.4082762,12.1056257 45.3499403,12.3196521 45.2918481,12.5590013 C45.2334309,12.6674542 45.1753387,12.8009346 45.0880786,12.90828 Z M33.9936092,15.0198249 C33.2655476,15.0198249 33.0034421,15.0198249 32.1588712,15.0452216 L32.1300282,14.9921395 C32.1881204,14.6986007 32.2753805,14.4049881 32.3629657,14.1102681 L32.4502258,13.7093839 C32.5959031,13.0683384 32.7705047,12.3461562 32.7705047,12.1056257 C32.7705047,11.9718499 32.8288406,11.6243432 32.4210578,11.6243432 C32.2464563,11.6243432 32.071611,11.7048153 31.8678415,11.7855828 C31.7514134,12.1319083 31.5476439,13.0683384 31.4600588,13.4954314 C31.2562893,14.4049881 31.2270401,14.5119644 31.1397799,14.9656354 L31.0816877,15.0198249 C30.3244582,15.0198249 30.0623527,15.0198249 29.2181068,15.0452216 L29.1889388,14.9921395 C29.3346161,14.4580702 29.4799685,13.9236318 29.6256458,13.3618771 C29.9750113,11.892559 30.0623527,11.3307305 30.1787808,10.5821181 L30.237198,10.5293313 C31.0816877,10.4220597 31.2854572,10.3957771 32.1881204,10.234316 L32.2464563,10.3150834 L32.100779,10.7686806 C32.2464563,10.6893897 32.3918086,10.6086222 32.5667352,10.5293313 C32.9326753,10.3768033 33.3290833,10.2948546 33.7315037,10.2885055 C34.1392865,10.2885055 34.5759935,10.3957771 34.750595,10.8228701 C34.9254403,11.1969548 34.8089309,11.6782373 34.5759935,12.586982 L34.4595653,13.0403577 C34.2265466,14.057186 34.1973787,14.2437485 34.0517013,14.9393527 C34.1101185,14.9393527 33.9936092,15.0198249 33.9936092,15.0198249 Z" id="Fill-7" fill="#FFFFFF"></path>
                    <path d="M39.9667525,7.02091115 L39.3855205,7.02091115 C37.8911335,7.04370673 37.2824922,7.02091115 37.0334148,7 C37.0056194,7.08710952 36.9782101,7.24078214 36.9782101,7.24078214 L36.4521828,9.22229577 L35.096541,13.6242748 C36.3969781,13.6014792 36.9504147,13.6014792 37.1718512,13.6242748 C37.2269786,13.4259836 37.5316467,12.2589105 37.5316467,12.2589105 C37.5316467,12.2589105 37.7804153,11.4009456 37.8082106,11.356327 C37.8082106,11.356327 37.8911335,11.2691567 37.9743652,11.2245382 L38.0850834,11.2245382 C39.219366,11.2245382 40.4923938,11.2245382 41.488626,10.6302117 C42.1527037,10.2348452 42.6232175,9.64045794 42.8445767,8.91409949 C42.8997814,8.73793523 42.9274995,8.51782108 42.9274995,8.31977306 C42.9274995,8.03339975 42.8445767,7.76982203 42.6506268,7.571774 C42.1527037,7.04249097 41.1565486,7.02182297 39.9667525,7.02182297 M40.713753,9.06771132 C40.603112,9.50866908 40.2433164,9.88221269 39.7728026,10.058377 C39.3855205,10.2120496 38.9150839,10.2120496 38.4445701,10.2120496 L38.1402109,10.2120496 L38.1680062,10.1020837 C38.1680062,10.1020837 38.749161,8.12148188 38.749161,8.14330485 L38.749161,7.94622944 L38.9705202,7.96689744 L40.1881117,8.05522272 C40.6583167,8.23144777 40.8521894,8.6049306 40.713753,9.06771132 M23.7787309,10.2348452 C24.2488586,9.97029482 24.3043722,9.64045794 23.9168584,9.44222755 C23.5295763,9.26575935 22.8377033,9.31043869 22.3949849,9.57401641 C21.9244711,9.81668299 21.8692664,10.1683428 22.2565485,10.366634 C22.6440622,10.5430414 23.3359352,10.4984229 23.7787309,10.2348452 M53,9.02406538 L52.9448725,8.95780622 C52.0867678,9.08959508 51.9486403,9.11239067 51.1461262,9.2004728 L51.0906127,9.24417953 L51.0906127,9.26575935 C50.5097668,10.3447503 50.5371761,10.1020837 50.039253,10.9609605 L50.039253,10.8509946 L49.9285348,9.02406538 L49.8453031,8.95780622 C48.959789,9.08959508 48.9323797,9.11239067 48.1020703,9.2004728 L48.0468656,9.24417953 L48.0468656,9.31043869 C48.1575838,9.72860086 48.1297885,9.64045794 48.2405067,10.3001317 C48.2957114,10.6302117 48.3511477,10.9609605 48.4063524,11.2691567 C48.4895841,11.7972848 48.5447887,12.0836581 48.6277116,12.8978555 C48.0743522,13.6242748 47.9361474,13.9094323 47.4101973,14.5474655 L47.0229152,15.03213 C46.9674789,15.0767485 46.9399924,15.1202121 46.8844788,15.1202121 C46.8293514,15.1420351 46.7460425,15.1420351 46.6354015,15.1420351 L46.4140423,15.1420351 L46.109683,15.979332 L47.1888381,16 C47.8255064,16 48.2127885,15.7582452 48.4341477,15.450049 L49.0982254,14.5267975 L49.1811482,14.4602952 C49.5687392,13.7341799 53,9.02406538 53,9.02406538" id="Fill-8" fill="#FFFFFF"></path>
                </g>
            </g>
        </g>
    </g>
</svg>