<?xml version="1.0" encoding="UTF-8"?>
<svg width="59px" height="78px" viewBox="0 0 59 78" version="1.1" xmlns="http://www.w3.org/2000/svg" xmlns:xlink="http://www.w3.org/1999/xlink">
    <!-- Generator: Sketch 54.1 (76490) - https://sketchapp.com -->
    <title>编组</title>
    <desc>Created with Sketch.</desc>
    <g id="页面1" stroke="none" stroke-width="1" fill="none" fill-rule="evenodd">
        <g id="M端-定期2复制-12" transform="translate(-158.000000, -168.000000)">
            <g id="编组" transform="translate(158.000000, 168.000000)">
                <path d="M29.5,59 C45.7924001,59 59,45.7924001 59,29.5 C59,13.2075999 45.7924001,0 29.5,0 C13.2075999,0 0,13.2075999 0,29.5 C0,45.7924001 13.2075999,59 29.5,59 Z" id="椭圆形" fill="#FF5C5C"></path>
                <path d="M29.5,38.0480001 L29.5,38.0480001 C28.12375,38.0480001 27,36.9680001 27,35.6480001 L27,16.4480001 C27,15.1280001 28.12375,14.0480001 29.5,14.0480001 C30.875,14.0480001 32,15.1280001 32,16.4480001 L32,35.6480001 C32,36.9680001 30.875,38.0480001 29.5,38.0480001" id="Fill-4" fill="#FFFFFF"></path>
                <path d="M32,43.5480001 C32,44.9290001 30.881,46.0480001 29.5,46.0480001 C28.119,46.0480001 27,44.9290001 27,43.5480001 C27,42.1670001 28.119,41.0480001 29.5,41.0480001 C30.881,41.0480001 32,42.1670001 32,43.5480001" id="Fill-6" fill="#FFFFFF"></path>
                <ellipse id="椭圆形" fill="#F3F3F3" cx="29.5" cy="74" rx="29.5" ry="4"></ellipse>
            </g>
        </g>
    </g>
</svg>