<?xml version="1.0" encoding="UTF-8"?>
<svg width="98px" height="70px" viewBox="0 0 98 70" version="1.1" xmlns="http://www.w3.org/2000/svg" xmlns:xlink="http://www.w3.org/1999/xlink">
    <!-- Generator: Sketch 55.2 (78181) - https://sketchapp.com -->
    <title>添加失败</title>
    <desc>Created with Sketch.</desc>
    <g id="页面1" stroke="none" stroke-width="1" fill="none" fill-rule="evenodd">
        <g id="M端_KYC认证_第二步4" transform="translate(-248.000000, -333.000000)">
            <g id="证件照片" transform="translate(30.000000, 278.000000)">
                <g id="本人手持证件照" transform="translate(219.000000, 56.000000)">
                    <g id="添加失败">
                        <g id="界限" stroke="#3C64EE" stroke-width="2">
                            <polyline id="Path-37-Copy-3" transform="translate(93.000000, 65.000000) scale(-1, -1) translate(-93.000000, -65.000000) " points="96 62 90 62 90 68"></polyline>
                            <polyline id="Path-37-Copy-3备份" transform="translate(93.000000, 3.000000) scale(-1, 1) translate(-93.000000, -3.000000) " points="96 -5.07614784e-13 90 -5.07614784e-13 90 6"></polyline>
                            <polyline id="Path-37-Copy-3备份-2" points="6 -5.07614784e-13 0 -5.07614784e-13 0 6"></polyline>
                            <polyline id="Path-37-Copy-3备份-3" transform="translate(3.000000, 65.000000) scale(1, -1) translate(-3.000000, -65.000000) " points="6 62 0 62 0 68"></polyline>
                        </g>
                        <path d="M1,1 L95,1 L94,67 L1,67 L1,1 Z" id="Rectangle-171" fill="#EEEEEE" opacity="0.302875906"></path>
                    </g>
                </g>
            </g>
        </g>
    </g>
</svg>