<?xml version="1.0" encoding="UTF-8"?>
<svg width="22px" height="22px" viewBox="0 0 22 22" version="1.1" xmlns="http://www.w3.org/2000/svg" xmlns:xlink="http://www.w3.org/1999/xlink">
    <!-- Generator: Sketch 55.2 (78181) - https://sketchapp.com -->
    <title>注册icon点亮</title>
    <desc>Created with Sketch.</desc>
    <g id="页面1" stroke="none" stroke-width="1" fill="none" fill-rule="evenodd">
        <g id="M端首页-未登录3复制-2备份" transform="translate(-38.000000, -495.000000)" fill="#3C64EE">
            <g id="编组-4" transform="translate(24.000000, 452.000000)">
                <g id="注册icon点亮" transform="translate(14.000000, 43.000000)">
                    <path d="M11.5,13 C8.46243388,13 6,10.5375661 6,7.5 C6,4.46243388 8.46243388,2 11.5,2 C14.5375661,2 17,4.46243388 17,7.5 C17,10.5375661 14.5375661,13 11.5,13 Z M11.5,11 C13.4329966,11 15,9.43299662 15,7.5 C15,5.56700338 13.4329966,4 11.5,4 C9.56700338,4 8,5.56700338 8,7.5 C8,9.43299662 9.56700338,11 11.5,11 Z" id="形状结合备份"></path>
                    <path d="M3.01446179,20 C3.00486504,19.8345585 3,19.6678474 3,19.5 C3,14.8055796 6.80557963,11 11.5,11 C16.1944204,11 20,14.8055796 20,19.5 C20,19.6678474 19.995135,19.8345585 19.9855382,20 L17.9810552,20 C17.9936085,19.8349792 18,19.668236 18,19.5 C18,15.9101491 15.0898509,13 11.5,13 C7.91014913,13 5,15.9101491 5,19.5 C5,19.668236 5.00639146,19.8349792 5.01894482,20 L3.01446179,20 Z" id="形状结合"></path>
                    <circle id="椭圆形" cx="4" cy="20" r="1"></circle>
                    <circle id="椭圆形备份-2" cx="19" cy="20" r="1"></circle>
                </g>
            </g>
        </g>
    </g>
</svg>