<svg width="100" height="94" xmlns="http://www.w3.org/2000/svg"><defs><linearGradient x1="50%" y1="0%" x2="50%" y2="92.574%" id="a"><stop stop-color="#00D779" offset="0%"/><stop stop-color="#00B870" offset="100%"/></linearGradient></defs><g fill="none" fill-rule="evenodd"><ellipse fill="#F3F3F3" cx="49.573" cy="89.667" rx="26.496" ry="4.135"/><path fill="#2DCF79" opacity=".34" d="M66.465 0l1.996 3.616 3.65 1.978-3.65 1.978-1.996 3.616-1.996-3.616-3.65-1.978 3.65-1.978z"/><path fill="#A9E8C8" d="M95.746 35.447l1.387 2.512 2.535 1.374-2.535 1.374-1.387 2.512-1.386-2.512-2.536-1.374 2.536-1.374z"/><path d="M18.48 17.966a2.832 2.832 0 01-1.052 3.89 2.886 2.886 0 01-3.924-1.043 2.832 2.832 0 011.05-3.89 2.888 2.888 0 013.925 1.043" fill="#C7F7DE"/><path fill="#ABE0C4" opacity=".476" d="M6.574 42.536l2.325 4.21 4.25 2.303-4.25 2.303-2.325 4.211-2.324-4.21L0 49.048l4.25-2.303z"/><path d="M74.359 47.423c0 14.031-11.48 25.406-25.641 25.406-14.161 0-25.641-11.375-25.641-25.406 0-14.03 11.48-25.405 25.64-25.405 14.162 0 25.642 11.374 25.642 25.405" fill="url(#a)"/><path d="M36.847 48.236l8.025 8.063a.485.485 0 00.645 0l17.565-16.732a.22.22 0 00.076-.166.22.22 0 00-.076-.165l-1.094-1.073a.285.285 0 00-.337 0l-16.078 12.99a.627.627 0 01-.73 0l-6.537-4.816h-.168a.228.228 0 00-.168 0l-1.15 1.513a.272.272 0 00.027.386" fill="#FFF"/></g></svg>