<svg width="20" height="165" xmlns="http://www.w3.org/2000/svg"><g fill="none" fill-rule="evenodd"><path fill="#DADDE1" d="M9 16h2v143H9z"/><path fill="#3C64EE" d="M9 17h2v33H9z"/><circle fill="#3C64EE" cx="10" cy="10" r="10"/><path d="M8.658 13.333a.53.53 0 01-.362-.141l-2.813-2.667a.469.469 0 010-.686c.2-.19.524-.19.724 0l2.434 2.308 5.137-5.322a.531.531 0 01.723-.031c.207.18.223.488.031.684l-5.497 5.697a.526.526 0 01-.366.158h-.011z" fill="#FFF"/><g transform="translate(0 72)"><circle fill="#DADDE1" cx="10" cy="10" r="10"/><path d="M13.466 14.667a.531.531 0 01-.308-.099L9.56 11.996a.543.543 0 01-.227-.442v-5.68c0-.298.239-.54.535-.54.295 0 .534.242.534.54v5.4l3.372 2.409c.241.172.298.51.128.754a.53.53 0 01-.436.23" fill="#FFF"/></g><g transform="translate(0 145)"><circle fill="#DADDE1" cx="10" cy="10" r="10"/><path d="M13.466 14.667a.531.531 0 01-.308-.099L9.56 11.996a.543.543 0 01-.227-.442v-5.68c0-.298.239-.54.535-.54.295 0 .534.242.534.54v5.4l3.372 2.409c.241.172.298.51.128.754a.53.53 0 01-.436.23" fill="#FFF"/></g></g></svg>