<svg width="14" height="14" xmlns="http://www.w3.org/2000/svg"><g fill="#999" fill-rule="evenodd"><path d="M7 13.067A6.074 6.074 0 01.933 7 6.074 6.074 0 017 .933 6.074 6.074 0 0113.067 7 6.074 6.074 0 017 13.067M7 0C3.14 0 0 3.14 0 7s3.14 7 7 7 7-3.14 7-7-3.14-7-7-7"/><path d="M7.29 3.211c-1.58-.073-2.516.633-2.808 2.115l1.058.255c.218-.972.753-1.458 1.604-1.458.705.048 1.094.413 1.167 1.093.023.487-.304.972-.985 1.459-.656.437-.972 1.009-.948 1.713v.364h.985v-.291c-.025-.51.242-.948.801-1.312.949-.584 1.398-1.264 1.35-2.042-.146-1.19-.888-1.823-2.224-1.896m-1.02 7.583h1.202V9.627H6.27z"/></g></svg>