<svg width="24" height="18" xmlns="http://www.w3.org/2000/svg"><g fill="#5AB82C" fill-rule="evenodd"><path d="M12.194 5.282c-.613 0-1.221-.393-1.221-.98-.003-.587.61-.977 1.221-.977.614 0 1.02.388 1.02.978 0 .588-.406.98-1.02.98M6.496 5.28c-.611 0-1.227-.393-1.227-.98s.616-.978 1.227-.978c.61 0 1.016.389 1.016.978 0 .59-.405.98-1.016.98M9.137 0C4.666 0 1 2.933 1 6.65c0 2.149 1.22 3.911 3.257 5.28l-.813 2.352 2.844-1.37c1.019.194 1.835.393 2.851.393.254 0 .508-.013.761-.032a5.619 5.619 0 01-.253-1.638c0-3.416 3.055-6.188 6.922-6.188.262.002.524.017.783.047C16.65 2.343 13.142 0 9.137 0"/><path d="M19.318 10.562c-.403 0-.808-.388-.808-.784 0-.39.405-.78.808-.78.61 0 1.02.393 1.02.78 0 .398-.41.784-1.02.784m-4.476 0c-.407 0-.815-.388-.815-.784 0-.39.408-.78.815-.78.615 0 1.018.393 1.018.78 0 .398-.405.784-1.018.784m9.159.98c0-3.129-3.259-5.678-6.917-5.678-3.873 0-6.923 2.55-6.923 5.677 0 3.131 3.05 5.675 6.923 5.675.812 0 1.628-.195 2.441-.392L21.76 18l-.611-1.952C22.783 14.869 24 13.305 24 11.54"/></g></svg>