<?xml version="1.0" encoding="UTF-8"?>
<svg width="33px" height="40px" viewBox="0 0 33 40" version="1.1" xmlns="http://www.w3.org/2000/svg" xmlns:xlink="http://www.w3.org/1999/xlink">
    <!-- Generator: Sketch 55.2 (78181) - https://sketchapp.com -->
    <title>编组</title>
    <desc>Created with Sketch.</desc>
    <defs>
        <polygon id="path-1" points="0.216822222 0.135384615 24.9781377 0.135384615 24.9781377 31.9261802 0.216822222 31.9261802"></polygon>
        <polygon id="path-3" points="0 39.3846154 32.7793889 39.3846154 32.7793889 0.135384615 0 0.135384615"></polygon>
    </defs>
    <g id="页面1" stroke="none" stroke-width="1" fill="none" fill-rule="evenodd">
        <g id="M端首页-未登录3复制-2" transform="translate(-298.000000, -336.000000)">
            <g id="编组-6" transform="translate(34.000000, 335.000000)">
                <g id="编组" transform="translate(264.000000, 1.000000)">
                    <polygon id="Fill-1" fill="#2955E7" points="15.5558333 37.7108308 18.0002778 37.7108308 18.0002778 26.0185231 15.5558333 26.0185231"></polygon>
                    <g transform="translate(0.000000, 0.480062)">
                        <path d="M4.53261111,5.72387692 L0.318388889,5.72387692 C0.318388889,5.72387692 -1.9415,22.7540308 5.58494444,22.7540308 C5.58494444,22.7540308 3.39044444,4.57372308 4.53261111,5.72387692" id="Fill-2" fill="#2955E7"></path>
                        <path d="M28.2472056,5.72387692 L32.4614278,5.72387692 C32.4614278,5.72387692 34.7207056,22.7540308 27.1942611,22.7540308 C27.1942611,22.7540308 29.3887611,4.57372308 28.2472056,5.72387692" id="Fill-4" fill="#2955E7"></path>
                        <g transform="translate(3.666667, 0.000000)">
                            <mask id="mask-2" fill="white">
                                <use xlink:href="#path-1"></use>
                            </mask>
                            <g id="Clip-7"></g>
                            <path d="M0.6171,0.1352 L24.9619333,0.1352 L24.9619333,15.9992 C24.9619333,15.9992 25.9042667,31.8970462 13.4168222,31.8970462 C13.4168222,31.8970462 0.216822222,33.4355077 0.216822222,14.1530462 L0.216822222,0.153046154 L0.6171,0.1352 Z" id="Fill-6" fill="#73B3F5" mask="url(#mask-2)"></path>
                        </g>
                        <path d="M17.0991944,8.88824615 L18.4809167,11.7079385 C18.5536389,11.8562462 18.6935833,11.9590154 18.85675,11.9830154 L21.9471389,12.4353231 C22.3565833,12.4950154 22.51975,13.0014769 22.2233611,13.2925538 L19.9879167,15.4870154 C19.8693611,15.6027077 19.8155833,15.7688615 19.8436944,15.9319385 L20.3710833,19.0310154 C20.4419722,19.4414769 20.0135833,19.7547077 19.6475278,19.5614769 L16.8834722,18.0980923 C16.7380278,18.0211692 16.5644722,18.0211692 16.4190278,18.0980923 L13.6549722,19.5614769 C13.2889167,19.7547077 12.8605278,19.4414769 12.9308056,19.0310154 L13.4588056,15.9319385 C13.4863056,15.7688615 13.4325278,15.6027077 13.3151944,15.4870154 L11.0791389,13.2925538 C10.78275,13.0014769 10.9465278,12.4950154 11.3559722,12.4353231 L14.44575,11.9830154 C14.6083056,11.9590154 14.7488611,11.8562462 14.8215833,11.7079385 L16.2033056,8.88824615 C16.3866389,8.51470769 16.9158611,8.51470769 17.0991944,8.88824615" id="Fill-8" fill="#2955E7"></path>
                        <mask id="mask-4" fill="white">
                            <use xlink:href="#path-3"></use>
                        </mask>
                        <g id="Clip-11"></g>
                        <polygon id="Fill-10" fill="#2955E7" mask="url(#mask-4)" points="6.69472222 39.3846154 26.8613889 39.3846154 26.8613889 36.3076923 6.69472222 36.3076923"></polygon>
                    </g>
                </g>
            </g>
        </g>
    </g>
</svg>